<?xml version="1.0" encoding="UTF-8" standalone="no"?>
<!-- Generator: Adobe Illustrator 25.0.1, SVG Export Plug-In . SVG Version: 6.00 Build 0)  -->

<svg
   version="1.0"
   id="katman_1"
   x="0px"
   y="0px"
   viewBox="0 0 256 256"
   xml:space="preserve"
   sodipodi:docname="fdroid.svg"
   width="256"
   height="256"
   inkscape:version="1.1.2 (0a00cf5339, 2022-02-04)"
   xmlns:inkscape="http://www.inkscape.org/namespaces/inkscape"
   xmlns:sodipodi="http://sodipodi.sourceforge.net/DTD/sodipodi-0.dtd"
   xmlns="http://www.w3.org/2000/svg"
   xmlns:svg="http://www.w3.org/2000/svg"><defs
   id="defs53" />
<style
   type="text/css"
   id="style2">
	.st0{fill:#4D4D4D;}
	.st1{fill-rule:evenodd;clip-rule:evenodd;fill:#8AB000;stroke:#769616;stroke-width:7.2984;stroke-linecap:round;}
	.st2{fill-rule:evenodd;clip-rule:evenodd;fill:#FFFFFF;fill-opacity:0.298;}
	.st3{fill-rule:evenodd;clip-rule:evenodd;fill:#263238;fill-opacity:0.2;}
	.st4{fill-rule:evenodd;clip-rule:evenodd;fill:#8AB000;}
	.st5{fill:#AEEA00;}
	.st6{fill:#263238;fill-opacity:0.2;}
	.st7{fill:#FFFFFF;fill-opacity:0.298;}
	.st8{fill:#1976D2;}
	.st9{fill:#FFFFFF;fill-opacity:0.2;}
	.st10{fill:#0D47A1;}
	.st11{fill:none;stroke:#0D47A1;stroke-width:5.5468;stroke-linecap:round;}
	.st12{fill:#FFFFFF;}
	.st13{fill-rule:evenodd;clip-rule:evenodd;fill:url(#path5128_1_);}
</style>
<sodipodi:namedview
   bordercolor="#666666"
   borderopacity="1.0"
   fit-margin-bottom="0"
   fit-margin-left="0"
   fit-margin-right="0"
   fit-margin-top="0"
   id="base"
   pagecolor="#ffffff"
   showgrid="false"
   inkscape:pageshadow="2"
   inkscape:pageopacity="0.0"
   inkscape:pagecheckerboard="0"
   inkscape:snap-object-midpoints="true"
   inkscape:snap-bbox="false"
   inkscape:snap-bbox-midpoints="true"
   inkscape:snap-page="true"
   inkscape:snap-center="true"
   inkscape:bbox-paths="true"
   inkscape:snap-bbox-edge-midpoints="true"
   inkscape:bbox-nodes="true"
   inkscape:snap-global="false"
   inkscape:zoom="1"
   inkscape:cx="88"
   inkscape:cy="142"
   inkscape:window-width="1170"
   inkscape:window-height="775"
   inkscape:window-x="171"
   inkscape:window-y="49"
   inkscape:window-maximized="0"
   inkscape:current-layer="g5012">
	<inkscape:grid
   id="grid5489"
   type="xygrid" />
</sodipodi:namedview>
<g
   id="layer1"
   transform="translate(-289,-514.36218)">
	<g
   id="text5902"
   transform="matrix(0.90948326,0,0,0.90948326,31.220152,47.172202)">
		
		
		
		
		
		
		
	</g>
	<g
   id="g4171"
   transform="matrix(1.8845456,0,0,1.8845362,162.08005,-1640.1055)">
		<g
   id="g5012"
   transform="translate(10)">
			<g
   id="g4179"
   transform="matrix(-1,0,0,1,47.999779,0)">
				<path
   id="path4181"
   class="st1"
   d="m -139.4,1148.7 12.4,16.1" />
				<path
   id="path4183"
   class="st2"
   d="m -139.3,1145 c -1.3,0 -2.2,0.6 -2.9,1.3 5.9,7 6.9,8.1 15,18.2 3,3.9 6.1,1.9 3.1,-2 l -12.4,-16.1 c -0.6,-0.8 -1.7,-1.3 -2.8,-1.4 z"
   style="fill:#ffffff;fill-opacity:1" />
				<path
   id="path4185"
   class="st3"
   d="m -142.2,1146.4 c -0.4,0.4 -1.6,2.3 -0.1,4.5 l 12.4,16.1 c 3,3.9 3.4,-1.8 3.4,-1.8 0,0 -10.9,-13.2 -15.7,-18.8 z"
   style="fill:#ffffff;fill-opacity:1" />
				<path
   id="path4187"
   class="st4"
   d="m -140.1,1145.7 c -1.3,0 -2.8,0.4 -2.4,2.3 0.3,1.5 13.6,17.7 13.6,17.7 3,3.9 7.3,2 4.3,-1.9 l -12.4,-16 c -0.7,-0.7 -1.7,-2 -3.1,-2.1 z"
   style="fill:#ffffff;fill-opacity:1" />
			</g>
			<g
   id="g4955">
				<path
   id="path4945"
   class="st1"
   d="m 62.3,1148.7 12.4,16.1" />
				<path
   id="path4947"
   class="st2"
   d="m 62.4,1145 c -1.3,0 -2.2,0.6 -2.9,1.3 5.9,7 6.9,8.1 15,18.2 3,3.9 6.1,1.9 3.1,-2 l -12.4,-16.1 c -0.6,-0.8 -1.7,-1.3 -2.8,-1.4 z"
   style="fill:#ffffff;fill-opacity:1" />
				<path
   id="path4951"
   class="st3"
   d="m 59.5,1146.4 c -0.4,0.4 -1.6,2.3 -0.1,4.5 l 12.4,16.1 c 3,3.9 3.4,-1.8 3.4,-1.8 0,0 -10.9,-13.2 -15.7,-18.8 z"
   style="fill:#ffffff;fill-opacity:1" />
				<path
   id="path4925"
   class="st4"
   d="m 61.6,1145.7 c -1.3,0 -2.8,0.4 -2.4,2.3 0.3,1.5 13.6,17.7 13.6,17.7 3,3.9 7.3,2 4.3,-1.9 l -12.4,-16 c -0.7,-0.7 -1.7,-2 -3.1,-2.1 z"
   style="fill:#ffffff;fill-opacity:1" />
			</g>
			<g
   id="g4967"
   transform="translate(42)">
				<path
   id="rect4144"
   class="st5"
   d="m 36.1,1158.9 h 93.4 c 4.8,0 8.8,3.9 8.8,8.8 v 20.4 c 0,4.8 -3.9,8.8 -8.8,8.8 H 36.1 c -4.8,0 -8.8,-3.9 -8.8,-8.8 v -20.4 c 0.1,-4.9 4,-8.8 8.8,-8.8 z" />
				<path
   id="rect4961"
   class="st6"
   d="m 36.1,1167.7 h 93.4 c 4.8,0 8.8,3.9 8.8,8.8 v 11.7 c 0,4.8 -3.9,8.8 -8.8,8.8 H 36.1 c -4.8,0 -8.8,-3.9 -8.8,-8.8 v -11.7 c 0.1,-4.9 4,-8.8 8.8,-8.8 z"
   style="fill:#ffffff;fill-opacity:1" />
				<path
   id="rect4963"
   class="st7"
   d="m 36.1,1158.9 h 93.4 c 4.8,0 8.8,3.9 8.8,8.8 v 11.7 c 0,4.8 -3.9,8.8 -8.8,8.8 H 36.1 c -4.8,0 -8.8,-3.9 -8.8,-8.8 v -11.7 c 0.1,-4.9 4,-8.8 8.8,-8.8 z"
   style="fill:#ffffff;fill-opacity:1;stroke:none" />
				<path
   id="rect4965"
   class="st5"
   d="m 36.1,1161.8 h 93.4 c 4.8,0 8.8,3.3 8.8,7.4 v 17.3 c 0,4.1 -3.9,7.4 -8.8,7.4 H 36.1 c -4.8,0 -8.8,-3.3 -8.8,-7.4 v -17.3 c 0.1,-4 4,-7.4 8.8,-7.4 z"
   style="fill:#ffffff;fill-opacity:1" />
			</g>
			<g
   id="g4979">
				<path
   id="rect4146"
   class="st8"
   d="m 78.1,1199.8 h 93.4 c 4.8,0 8.8,3.9 8.8,8.8 v 58.4 c 0,4.8 -3.9,8.8 -8.8,8.8 H 78.1 c -4.8,0 -8.8,-3.9 -8.8,-8.8 v -58.4 c 0.1,-4.9 4,-8.8 8.8,-8.8 z" />
				<path
   id="rect4973"
   class="st6"
   d="m 78.1,1237.7 h 93.4 c 4.8,0 8.8,3.9 8.8,8.8 v 20.4 c 0,4.8 -3.9,8.8 -8.8,8.8 H 78.1 c -4.8,0 -8.8,-3.9 -8.8,-8.8 v -20.4 c 0.1,-4.8 4,-8.8 8.8,-8.8 z"
   style="stroke:none;stroke-opacity:1;fill:#ffffff;fill-opacity:1" />
				<path
   id="rect4975"
   class="st9"
   d="m 78.1,1199.8 h 93.4 c 4.8,0 8.8,3.9 8.8,8.8 v 20.4 c 0,4.8 -3.9,8.8 -8.8,8.8 H 78.1 c -4.8,0 -8.8,-3.9 -8.8,-8.8 v -20.4 c 0.1,-4.9 4,-8.8 8.8,-8.8 z"
   style="fill:#ffffff;fill-opacity:1;stroke:none;stroke-opacity:1;stroke-width:0;stroke-miterlimit:4;stroke-dasharray:none;fill-rule:nonzero" />
				<path
   id="rect4977"
   class="st8"
   d="m 78.1,1202.7 h 93.4 c 4.8,0 8.8,3.6 8.8,8.1 v 53.9 c 0,4.5 -3.9,8.1 -8.8,8.1 H 78.1 c -4.8,0 -8.8,-3.6 -8.8,-8.1 v -53.9 c 0.1,-4.5 4,-8.1 8.8,-8.1 z"
   style="fill:#ffffff;fill-opacity:1" />
			</g>
			<ellipse
   style="fill-opacity:1;fill-rule:evenodd;stroke:#4a148c;stroke-width:5.54671;stroke-miterlimit:4;stroke-dasharray:none;stroke-opacity:1;fill:none"
   id="path1715"
   cx="125.24583"
   cy="1238.0076"
   rx="27.497252"
   ry="27.497389" /><g
   id="g4211"
   transform="translate(0,1013.3622)">
				<path
   id="path4161"
   class="st10"
   d="m 124.9,206.1 c -8.4,0 -15.5,5.8 -17.6,13.6 h 9.4 c 1.6,-2.9 4.7,-4.8 8.2,-4.8 5.3,0 9.5,4.2 9.5,9.5 0,5.3 -4.2,9.5 -9.5,9.5 -3.8,0 -7,-2.2 -8.6,-5.4 h -9.2 c 1.9,8.1 9.1,14.2 17.8,14.2 10,0 18.2,-8.2 18.2,-18.2 0,-10 -8.2,-18.4 -18.2,-18.4 z"
   style="fill:#4a148c;fill-opacity:1" />
				
			</g>
			<g
   id="g4989"
   transform="translate(0,0.50001738)">
				<ellipse
   id="circle4985"
   class="st6"
   cx="96.800003"
   cy="1177.8"
   rx="9.8999996"
   ry="11.3"
   style="fill:#ffffff;fill-opacity:1" />
				<circle
   id="path4859"
   class="st12"
   cx="96.800003"
   cy="1179.2"
   r="9.8999996"
   style="fill:#4a148c;fill-opacity:1" />
			</g>
			<g
   id="g4201"
   transform="translate(19.5,0.50001738)">
				<ellipse
   id="ellipse4175"
   class="st6"
   cx="134.2"
   cy="1177.8"
   rx="9.8999996"
   ry="11.3"
   style="fill:#ffffff;fill-opacity:1" />
				<circle
   id="circle4177"
   class="st12"
   cx="134.2"
   cy="1179.2"
   r="9.8999996"
   style="fill-opacity:1;fill:#4a148c" />
			</g>
		</g>
		
			<radialGradient
   id="path5128_1_"
   cx="-86.358398"
   cy="1595.6584"
   r="66.185097"
   gradientTransform="matrix(0,1.9748,2.1172,-3.978405e-8,-3309.6914,1315.5547)"
   gradientUnits="userSpaceOnUse">
			<stop
   offset="0"
   style="stop-color:#FFFFFF;stop-opacity:9.803922e-02"
   id="stop44" />
			<stop
   offset="1"
   style="stop-color:#FFFFFF;stop-opacity:0"
   id="stop46" />
		</radialGradient>
		<path
   id="path5128"
   class="st13"
   d="m 72.4,1145 c -2,-0.1 -3.7,1.5 -3.7,3.5 0,0.9 0.3,1.7 0.8,2.4 l 10.5,13.6 c -0.4,1 -0.6,2 -0.6,3.1 v 11.7 8.4 0.4 c 0,4.9 3.9,8.8 8.8,8.8 h 93.4 c 4.9,0 8.8,-3.9 8.8,-8.8 v -11.7 -8.4 -0.4 c 0,-1.1 -0.2,-2.2 -0.6,-3.1 l 10.5,-13.6 c 1.3,-1.6 1,-3.9 -0.6,-5.1 -0.7,-0.6 -1.6,-0.8 -2.5,-0.8 -1.1,0.1 -2.1,0.6 -2.7,1.5 l -10,13 c -0.9,-0.3 -1.9,-0.5 -2.9,-0.5 H 88.2 c -1,0 -2,0.2 -2.9,0.5 l -10,-13 c -0.7,-0.9 -1.8,-1.5 -2.9,-1.5 z m 15.8,54.8 c -0.6,0 -1.2,0.1 -1.8,0.2 -4,0.8 -7,4.3 -7,8.5 v 0.1 57.7 0.1 0.6 c 0,4.9 3.9,8.8 8.8,8.8 h 93.4 c 4.9,0 8.8,-3.9 8.8,-8.8 v -58.4 -0.1 c 0,-4.2 -3,-7.7 -7,-8.5 -0.6,-0.1 -1.2,-0.2 -1.8,-0.2 z"
   style="fill:none;fill-opacity:0.09803922" />
	</g>
</g>
</svg>
