<?xml version="1.0" encoding="UTF-8" standalone="no"?>
<svg
   role="img"
   viewBox="0 0 24 24"
   version="1.1"
   id="svg6"
   sodipodi:docname="flathub.svg"
   inkscape:version="1.1.2 (0a00cf5339, 2022-02-04)"
   xmlns:inkscape="http://www.inkscape.org/namespaces/inkscape"
   xmlns:sodipodi="http://sodipodi.sourceforge.net/DTD/sodipodi-0.dtd"
   xmlns="http://www.w3.org/2000/svg"
   xmlns:svg="http://www.w3.org/2000/svg"
   xmlns:rdf="http://www.w3.org/1999/02/22-rdf-syntax-ns#"
   xmlns:cc="http://creativecommons.org/ns#"
   xmlns:dc="http://purl.org/dc/elements/1.1/">
  <defs
     id="defs10" />
  <sodipodi:namedview
     id="namedview8"
     pagecolor="#ffffff"
     bordercolor="#666666"
     borderopacity="1.0"
     inkscape:pageshadow="2"
     inkscape:pageopacity="0.0"
     inkscape:pagecheckerboard="0"
     showgrid="false"
     inkscape:zoom="9.0729167"
     inkscape:cx="17.634902"
     inkscape:cy="27.003444"
     inkscape:window-width="1920"
     inkscape:window-height="1043"
     inkscape:window-x="0"
     inkscape:window-y="0"
     inkscape:window-maximized="1"
     inkscape:current-layer="svg6" />
  <title
     id="title2">Flathub</title>
  <path
     d="M12 2.604l-.43.283L0 10.459v6.752l6.393 4.184L12 17.725l5.607 3.671L24 17.211v-6.752L12 2.604zm0 .828l5.434 3.556-2.717 1.778L12 10.545l-2.717-1.78-2.717-1.777L12 3.432zM6.39 7.104l5.434 3.556-5.408 3.54-5.434-3.557 5.409-3.54zm11.22 0l5.431 3.554-5.434 3.557-5.433-3.555 5.435-3.556zM.925 10.867l5.379 3.52a.123.08 0 00.027.013v5.647l-5.406-3.54v-5.64zm11.213.115l5.408 3.54v5.664l-5.408-3.54v-5.664z"
     id="path4"
     style="fill-opacity:1;fill:#e3f2fd" />
  <metadata
     id="metadata827">
    <rdf:RDF>
      <cc:Work
         rdf:about="">
        <dc:title>Flathub</dc:title>
      </cc:Work>
    </rdf:RDF>
  </metadata>
</svg>
