<?xml version="1.0" encoding="UTF-8" standalone="no"?>
<!-- Uploaded to: SVG Repo, www.svgrepo.com, Generator: SVG Repo Mixer Tools -->

<svg
   fill="#000000"
   height="800px"
   width="800px"
   version="1.1"
   id="Layer_1"
   viewBox="0 0 503.747 503.747"
   xml:space="preserve"
   sodipodi:docname="google_chrome.svg"
   inkscape:version="1.1.2 (0a00cf5339, 2022-02-04)"
   xmlns:inkscape="http://www.inkscape.org/namespaces/inkscape"
   xmlns:sodipodi="http://sodipodi.sourceforge.net/DTD/sodipodi-0.dtd"
   xmlns="http://www.w3.org/2000/svg"
   xmlns:svg="http://www.w3.org/2000/svg"><defs
   id="defs19" /><sodipodi:namedview
   id="namedview17"
   pagecolor="#ffffff"
   bordercolor="#666666"
   borderopacity="1.0"
   inkscape:pageshadow="2"
   inkscape:pageopacity="0.0"
   inkscape:pagecheckerboard="0"
   showgrid="false"
   inkscape:zoom="1.085"
   inkscape:cx="400"
   inkscape:cy="400"
   inkscape:window-width="1920"
   inkscape:window-height="1056"
   inkscape:window-x="0"
   inkscape:window-y="24"
   inkscape:window-maximized="1"
   inkscape:current-layer="Layer_1" />
<g
   id="g14"
   style="fill:#e3f2fd;fill-opacity:1">
	<g
   id="g12"
   style="fill:#e3f2fd;fill-opacity:1">
		<g
   id="g10"
   style="fill:#e3f2fd;fill-opacity:1">
			<path
   d="m 281.637,362.845 c -6.782,2.04 -17.047,5.128 -29.763,5.128 -22.914,0 -44.091,-6.253 -62.909,-18.583 -18.919,-12.406 -33.28,-28.546 -42.958,-48.481 L 38.814,113.031 31.562,125.999 C 10.671,163.375 0.07,205.703 0.07,251.808 c 0,62.657 20.69,118.104 61.499,164.788 40.775,46.634 92.227,74.928 152.92,84.069 l 5.657,0.856 83.96,-145.274 z"
   id="path2"
   style="fill:#e3f2fd;fill-opacity:1" />
			<path
   d="m 138.303,220.311 c 6.329,-24.744 20.514,-45.803 42.169,-62.59 20.354,-15.763 43.713,-23.426 71.403,-23.426 h 223.836 l -7.42,-12.641 C 447.156,85.604 417.393,56.764 377.314,33.464 339.1,11.256 296.889,0 251.875,0 212.703,0 175.629,8.444 141.686,25.105 105.502,42.849 74.765,67.886 52.816,97.54 l -3.357,4.541 83.918,137.51 z"
   id="path4"
   style="fill:#e3f2fd;fill-opacity:1" />
			<path
   d="m 484.565,156.93 -2.275,-4.801 H 315.286 l 14.328,14.328 c 24.786,24.794 38.434,55.095 38.434,85.345 0,24.173 -6.874,46.584 -20.749,67.114 l -107.218,184.831 14.739,-0.143 c 68.541,-0.655 127.782,-25.81 176.094,-74.76 48.279,-48.951 72.763,-108.519 72.763,-177.043 0,-24.895 -3.316,-61.566 -19.112,-94.871 z"
   id="path6"
   style="fill:#e3f2fd;fill-opacity:1" />
			<path
   d="m 151.155,251.804 c 0,54.599 46.122,100.721 100.721,100.721 54.599,0 100.721,-46.122 100.721,-100.721 0,-54.599 -46.122,-100.721 -100.721,-100.721 -54.599,0 -100.721,46.122 -100.721,100.721 z"
   id="path8"
   style="fill:#e3f2fd;fill-opacity:1" />
		</g>
	</g>
</g>
</svg>
