<?xml version="1.0" encoding="UTF-8" standalone="no"?>
<!-- Uploaded to: SVG Repo, www.svgrepo.com, Generator: SVG Repo Mixer Tools -->

<svg
   fill="#000000"
   width="800px"
   height="800px"
   viewBox="0 0 32 32"
   version="1.1"
   id="svg6"
   sodipodi:docname="microsoft_edge.svg"
   inkscape:version="1.1.2 (0a00cf5339, 2022-02-04)"
   xmlns:inkscape="http://www.inkscape.org/namespaces/inkscape"
   xmlns:sodipodi="http://sodipodi.sourceforge.net/DTD/sodipodi-0.dtd"
   xmlns="http://www.w3.org/2000/svg"
   xmlns:svg="http://www.w3.org/2000/svg"
   xmlns:rdf="http://www.w3.org/1999/02/22-rdf-syntax-ns#"
   xmlns:cc="http://creativecommons.org/ns#"
   xmlns:dc="http://purl.org/dc/elements/1.1/">
  <defs
     id="defs10" />
  <sodipodi:namedview
     id="namedview8"
     pagecolor="#ffffff"
     bordercolor="#666666"
     borderopacity="1.0"
     inkscape:pageshadow="2"
     inkscape:pageopacity="0.0"
     inkscape:pagecheckerboard="0"
     showgrid="false"
     inkscape:zoom="1.085"
     inkscape:cx="400"
     inkscape:cy="400"
     inkscape:window-width="1920"
     inkscape:window-height="1056"
     inkscape:window-x="0"
     inkscape:window-y="24"
     inkscape:window-maximized="1"
     inkscape:current-layer="svg6" />
  <title
     id="title2">microsoftedge</title>
  <path
     d="M15.95 1.079c0.007 0 0.014 0 0.022 0 1.469 0 2.896 0.178 4.261 0.513l-0.122-0.025c1.453 0.341 2.732 0.835 3.919 1.478l-0.082-0.041c1.251 0.682 2.327 1.484 3.276 2.414l-0.002-0.002c0.975 0.964 1.8 2.076 2.439 3.301l0.035 0.073c0.375 0.7 0.699 1.514 0.931 2.366l0.019 0.083c0.222 0.77 0.35 1.654 0.35 2.568 0 0.011-0 0.022-0 0.033v-0.002c0 0.010 0 0.022 0 0.034 0 0.744-0.105 1.464-0.301 2.145l0.013-0.055c-0.412 1.363-1.192 2.511-2.225 3.365l-0.012 0.009c-0.522 0.432-1.119 0.801-1.764 1.081l-0.048 0.019c-0.396 0.182-0.859 0.337-1.342 0.442l-0.046 0.008c-0.435 0.103-0.935 0.162-1.449 0.162h-0q-0.525 0-1.212-0.037c-0.515-0.030-0.988-0.083-1.452-0.161l0.078 0.011c-0.504-0.092-0.945-0.213-1.369-0.368l0.057 0.018c-0.405-0.149-0.754-0.361-1.053-0.628l0.003 0.003c-0.11-0.086-0.205-0.185-0.285-0.296l-0.003-0.004c-0.077-0.116-0.123-0.259-0.125-0.412v-0c0.018-0.171 0.091-0.322 0.2-0.438l-0 0c0.143-0.18 0.287-0.384 0.42-0.596l0.017-0.029c0.172-0.245 0.323-0.525 0.44-0.822l0.010-0.027c0.127-0.331 0.201-0.714 0.201-1.114 0-0.026-0-0.051-0.001-0.077l0 0.004c0-0.018 0-0.038 0-0.059 0-0.865-0.184-1.687-0.515-2.428l0.015 0.038c-0.349-0.787-0.794-1.464-1.33-2.056l0.006 0.006c-0.549-0.613-1.174-1.142-1.863-1.578l-0.036-0.021c-0.642-0.419-1.38-0.794-2.158-1.086l-0.079-0.026c-0.61-0.227-1.334-0.418-2.080-0.54l-0.069-0.009c-0.659-0.111-1.418-0.175-2.192-0.175-0.003 0-0.005 0-0.008 0h0c-1.364 0.001-2.68 0.206-3.918 0.587l0.094-0.025c-1.315 0.395-2.458 0.988-3.462 1.756l0.026-0.019c0.61-1.495 1.37-2.785 2.287-3.945l-0.026 0.034c0.902-1.131 1.94-2.102 3.101-2.905l0.048-0.031c1.113-0.772 2.398-1.406 3.774-1.835l0.1-0.027c1.316-0.412 2.83-0.65 4.399-0.65 0.026 0 0.053 0 0.079 0l-0.004-0zM8.952 21.736c0 0.004 0 0.010 0 0.015 0 0.949 0.123 1.87 0.354 2.747l-0.017-0.075c0.249 0.966 0.583 1.81 1.005 2.599l-0.030-0.062c0.451 0.841 0.966 1.567 1.558 2.221l-0.008-0.009c0.602 0.668 1.284 1.246 2.035 1.726l0.040 0.024c-1.305-0.178-2.485-0.501-3.595-0.96l0.096 0.035c-1.184-0.493-2.204-1.067-3.146-1.744l0.046 0.032c-0.976-0.708-1.828-1.489-2.584-2.356l-0.016-0.018c-0.734-0.85-1.39-1.805-1.934-2.828l-0.041-0.083c-0.511-0.953-0.943-2.060-1.24-3.22l-0.022-0.104c-0.286-1.072-0.45-2.302-0.45-3.57 0-0.010 0-0.020 0-0.030v0.002c-0-0.014-0-0.030-0-0.047 0-0.659 0.148-1.283 0.411-1.842l-0.011 0.026c0.273-0.592 0.621-1.1 1.039-1.539l-0.002 0.002c0.438-0.453 0.93-0.85 1.467-1.181l0.032-0.019c0.48-0.298 1.036-0.576 1.618-0.801l0.069-0.024c0.534-0.203 1.165-0.373 1.817-0.48l0.058-0.008c0.582-0.095 1.253-0.149 1.936-0.15h0.001c0.627 0.001 1.242 0.046 1.844 0.133l-0.069-0.008c0.671 0.113 1.26 0.265 1.828 0.461l-0.079-0.024c0.643 0.22 1.188 0.46 1.708 0.741l-0.059-0.029c0.55 0.308 1.025 0.652 1.456 1.043l-0.006-0.006c-0.31 0-0.612 0.032-0.904 0.092l0.029-0.005c-0.307 0.067-0.579 0.166-0.831 0.296l0.019-0.009v-0.025c-0.572 0.26-1.066 0.569-1.511 0.934l0.012-0.009c-0.485 0.394-0.915 0.82-1.3 1.284l-0.012 0.015c-0.384 0.462-0.743 0.977-1.058 1.521l-0.029 0.054c-0.283 0.487-0.556 1.059-0.784 1.653l-0.028 0.084c-0.199 0.5-0.38 1.103-0.511 1.723l-0.014 0.076c-0.116 0.517-0.184 1.112-0.187 1.722v0.003zM28.321 23.323c0.126 0.002 0.237 0.060 0.312 0.149l0.001 0.001c0.073 0.084 0.119 0.192 0.125 0.311l0 0.001c-0.016 0.154-0.065 0.294-0.14 0.417l0.002-0.004-0.4 0.575-0.537 0.662-0.55 0.625q-0.262 0.312-0.475 0.525l-0.275 0.287c-0.5 0.453-1.047 0.881-1.623 1.267l-0.051 0.032c-0.568 0.387-1.223 0.766-1.906 1.096l-0.093 0.041c-0.608 0.293-1.33 0.566-2.078 0.777l-0.096 0.023c-0.624 0.184-1.341 0.293-2.083 0.3l-0.004 0c-0.013 0-0.029 0-0.045 0-0.74 0-1.451-0.128-2.111-0.364l0.044 0.014c-0.706-0.25-1.318-0.58-1.868-0.988l0.019 0.013c-0.577-0.428-1.078-0.909-1.512-1.447l-0.012-0.015c-0.423-0.524-0.805-1.114-1.123-1.742l-0.026-0.057c-0.29-0.572-0.539-1.238-0.711-1.934l-0.014-0.066c-0.158-0.627-0.25-1.346-0.25-2.087v-0c0-0 0-0 0-0.001 0-0.876 0.146-1.718 0.416-2.503l-0.016 0.054c0.293-0.859 0.661-1.602 1.111-2.288l-0.023 0.038c0.12 0.825 0.361 1.57 0.706 2.254l-0.019-0.042c0.361 0.715 0.786 1.331 1.281 1.882l-0.007-0.008c0.506 0.569 1.072 1.068 1.693 1.492l0.032 0.020c0.591 0.416 1.265 0.792 1.977 1.097l0.073 0.028c0.622 0.27 1.361 0.511 2.126 0.683l0.086 0.016c0.675 0.156 1.451 0.247 2.247 0.25h0.002c0.007 0 0.016 0 0.024 0 0.957 0 1.889-0.109 2.783-0.316l-0.083 0.016c0.975-0.216 1.835-0.526 2.639-0.929l-0.065 0.029 0.25-0.125z"
     id="path4"
     style="fill:#e3f2fd;fill-opacity:1" />
  <metadata
     id="metadata827">
    <rdf:RDF>
      <cc:Work
         rdf:about="">
        <dc:title>microsoftedge</dc:title>
      </cc:Work>
    </rdf:RDF>
  </metadata>
</svg>
